<svg id="Layer_1" data-name="Layer 1" xmlns="http://www.w3.org/2000/svg" viewBox="0 0 100 100"><defs><style>.cls-1{fill:#fff;}.cls-2{fill:#371a45;}.cls-3{opacity:0.35;}.cls-4{opacity:0.7;}.cls-5{fill:#111a28;}.cls-6{fill:#22a7f0;}.cls-7{fill:#fcd57e;}.cls-8{opacity:0.6;}.cls-9{fill:#f92323;}.cls-10{opacity:0.5;}.cls-11{fill:#ffce00;}</style></defs><title>astronauta</title><rect class="cls-1" x="33.26" y="33.67" width="33.17" height="26.01" rx="10.66"/><path class="cls-2" d="M62.52,60.15H37.17a4.39,4.39,0,0,1-4.39-4.38V37.58a4.4,4.4,0,0,1,4.39-4.39H62.52a4.39,4.39,0,0,1,4.38,4.39V55.77A4.38,4.38,0,0,1,62.52,60.15Zm-25.35-26a3.44,3.44,0,0,0-3.44,3.44V55.77a3.44,3.44,0,0,0,3.44,3.43H62.52A3.44,3.44,0,0,0,66,55.77V37.58a3.44,3.44,0,0,0-3.43-3.44Z"/><path class="cls-1" d="M83.79,36C80.58,40.13,73.89,44.43,66,47.7c0,0-1.49,16-4,24.24H37.87c-2.49-8.21-4-24.24-4-24.24C26,44.43,19.26,40.13,16.06,36c-2.44-3.17-2-7.94-.31-9.41,2.06-1.78,5.47.81,5.47.81s.45-1.49,1.43-1.65c1.51-.26,1.55,3.59,2.09,4a37.59,37.59,0,0,0,7.56,4.62,29.15,29.15,0,0,0,2.82,1.1,43.79,43.79,0,0,0,8.41,1.81H56.31a44.08,44.08,0,0,0,8.2-1.74,26.29,26.29,0,0,0,3-1.17,37.35,37.35,0,0,0,7.57-4.62c.54-.41.58-4.26,2.09-4,1,.16,1.42,1.65,1.42,1.65s3.42-2.59,5.48-.81C85.78,28,86.23,32.78,83.79,36Z"/><g class="cls-3"><path class="cls-2" d="M37.87,71.94c-2.49-8.21-4-24.24-4-24.24C26,44.43,19.26,40.13,16.06,36a8.62,8.62,0,0,1-1.7-5.23c.26,1.09.5,2.39,1.44,3.1,2.47,1.83,3.3-5.95,5.7-4.77.22.11-.89.71-1.26,2.88a6.5,6.5,0,0,0,1.26,5.31c1.92,2.76,6.73,4.89,10.65,6.61A7.63,7.63,0,0,1,36.67,50c.62,5.35,1.84,14.35,3.51,19.85Z"/></g><g class="cls-3"><path class="cls-2" d="M62,71.94c2.49-8.21,4-24.24,4-24.24C73.89,44.43,80.58,40.13,83.79,36a8.75,8.75,0,0,0,1.7-5.23c-.26,1.09-.5,2.39-1.45,3.1-2.46,1.83-3.3-5.95-5.69-4.77-.23.11.89.71,1.26,2.88a6.54,6.54,0,0,1-1.26,5.31c-1.92,2.76-6.73,4.89-10.66,6.61A7.64,7.64,0,0,0,63.18,50c-.62,5.35-1.84,14.35-3.51,19.85Z"/></g><path class="cls-2" d="M62,72.46a.4.4,0,0,1-.15,0,.51.51,0,0,1-.34-.64c2.44-8.07,3.95-24,4-24.13l0-.31.29-.12c8.1-3.34,14.52-7.57,17.61-11.59,2.26-2.94,1.84-7.44.38-8.71-1.72-1.49-4.8.81-4.83.83l-.59.44-.21-.7c-.09-.31-.48-1.21-1-1.3s-.85,1.44-1,2.25-.34,1.42-.66,1.66a38.87,38.87,0,0,1-7.66,4.67,39.05,39.05,0,0,1-11.39,3H43.47a39,39,0,0,1-11.38-3,38.59,38.59,0,0,1-7.66-4.67c-.33-.24-.45-.73-.66-1.66s-.53-2.34-1-2.25-.9.91-1,1.3l-.22.71-.58-.45s-3.12-2.32-4.83-.83c-1.46,1.27-1.88,5.77.38,8.71,3.08,4,9.5,8.25,17.61,11.59l.29.12,0,.31c0,.16,1.52,16.06,4,24.13a.51.51,0,0,1-.34.64.51.51,0,0,1-.64-.34c-2.29-7.54-3.75-21.76-4-24-8.13-3.39-14.59-7.68-17.75-11.79-2.51-3.28-2.22-8.38-.24-10.11s4.45-.29,5.58.41a2.33,2.33,0,0,1,1.57-1.38c1.46-.25,1.9,1.65,2.21,3a5.79,5.79,0,0,0,.31,1.09,36.67,36.67,0,0,0,7.44,4.53,37.67,37.67,0,0,0,11,2.87H56.28a37.84,37.84,0,0,0,11-2.87,37.23,37.23,0,0,0,7.44-4.53,7.87,7.87,0,0,0,.31-1.09c.31-1.39.74-3.29,2.2-3a2.37,2.37,0,0,1,1.58,1.38c1.12-.7,3.74-2,5.57-.41,2,1.73,2.28,6.83-.24,10.11-3.15,4.11-9.61,8.4-17.75,11.79-.22,2.27-1.68,16.49-4,24A.52.52,0,0,1,62,72.46Z"/><path class="cls-1" d="M68.13,26.2h0a.37.37,0,0,1-.4-.35l-.81-10.8a.38.38,0,0,1,.35-.41h0a4,4,0,0,1,4.23,3.64L71.77,22A3.94,3.94,0,0,1,68.13,26.2Z"/><path class="cls-2" d="M68.1,26.29a.41.41,0,0,1-.3-.11.43.43,0,0,1-.16-.32l-.81-10.81a.48.48,0,0,1,.11-.34.47.47,0,0,1,.32-.16,4,4,0,0,1,4.33,3.73L71.86,22a4,4,0,0,1-3.72,4.33h0Zm-.53-11.57h-.3a.35.35,0,0,0-.19.1A.27.27,0,0,0,67,15l.81,10.81a.3.3,0,0,0,.1.19.26.26,0,0,0,.2.07h0A3.85,3.85,0,0,0,71.68,22l-.28-3.69a3.75,3.75,0,0,0-1.33-2.63A3.79,3.79,0,0,0,67.57,14.72Z"/><g class="cls-3"><path class="cls-2" d="M71.64,20.24,71.77,22a3.94,3.94,0,0,1-3.64,4.23.37.37,0,0,1-.4-.35L67.51,23a.38.38,0,0,0,.36.2l.26,0A4,4,0,0,0,71.64,20.24Z"/></g><path class="cls-2" d="M68.1,26.72a.91.91,0,0,1-.58-.22.84.84,0,0,1-.3-.61l-.81-10.81a.89.89,0,0,1,.82-.95,4.4,4.4,0,0,1,3.24,1.07A4.46,4.46,0,0,1,72,18.25l.27,3.68a4.45,4.45,0,0,1-4.11,4.78H68.1Zm0-1Zm-.65-10.54.79,10.53a3.43,3.43,0,0,0,3-3.67L71,18.32a3.45,3.45,0,0,0-3.55-3.17Z"/><path class="cls-1" d="M31.59,17.32h0a.36.36,0,0,1,.4.34l.81,10.81a.36.36,0,0,1-.34.4h0a4,4,0,0,1-4.24-3.64L28,21.55A3.94,3.94,0,0,1,31.59,17.32Z"/><path class="cls-2" d="M32.15,29a4.06,4.06,0,0,1-4-3.74l-.27-3.69a4,4,0,0,1,3.72-4.33h0a.46.46,0,0,1,.5.44l.81,10.8a.47.47,0,0,1-.43.51ZM31.6,17.41A3.86,3.86,0,0,0,28,21.54l.28,3.69a3.77,3.77,0,0,0,1.33,2.63,3.81,3.81,0,0,0,2.8.92.29.29,0,0,0,.26-.3L31.9,17.67a.28.28,0,0,0-.3-.26Z"/><g class="cls-3"><path class="cls-2" d="M32.58,25.47l.22,3a.36.36,0,0,1-.34.4,3.94,3.94,0,0,1-4.24-3.64l-.11-1.55a3.93,3.93,0,0,0,3.76,2l.39,0A.38.38,0,0,0,32.58,25.47Z"/></g><path class="cls-2" d="M32.15,29.4a4.46,4.46,0,0,1-4.44-4.13l-.27-3.68a4.47,4.47,0,0,1,4.11-4.79h0a.89.89,0,0,1,.95.82l.81,10.81a.89.89,0,0,1-.82,1Zm-.66-11.56a3.44,3.44,0,0,0-3,3.67l.28,3.68a3.36,3.36,0,0,0,1.18,2.35,3.4,3.4,0,0,0,2.36.83Zm.14,0Z"/><g class="cls-3"><path class="cls-2" d="M64.51,35.49a18.46,18.46,0,0,1-29.39-.07,43.79,43.79,0,0,0,8.41,1.81H56.31A44.08,44.08,0,0,0,64.51,35.49Z"/></g><circle class="cls-1" cx="49.86" cy="21.76" r="18.47"/><path class="cls-2" d="M49.86,40.32A18.56,18.56,0,0,1,49.79,3.2h.07a18.56,18.56,0,0,1,.07,37.12Zm0-36.94h-.07a18.38,18.38,0,0,0,.07,36.76h.07a18.38,18.38,0,0,0-.07-36.76Z"/><g class="cls-3"><path class="cls-2" d="M68.15,19.13a18,18,0,0,1,.18,2.56,18.47,18.47,0,0,1-36.94.14c0-.29,0-.59,0-.88a18.47,18.47,0,0,0,36.74-1.82Z"/></g><path class="cls-2" d="M49.86,40.74a19,19,0,0,1-.07-38h.07a19,19,0,0,1,.07,38Zm0-36.94h-.07a18,18,0,0,0,.07,35.92h.07A18,18,0,0,0,49.86,3.8Z"/><path class="cls-2" d="M68.27,22.16a16.59,16.59,0,0,1-3,9.81c-1.46,2.11-7.58,5.87-15.21,6.08-7.08.2-13.59-3.46-15.14-5.51a16.64,16.64,0,0,1-3.36-9.68c-.18-9.57,8-13.69,18.1-13.88S68.09,12.6,68.27,22.16Z"/><path class="cls-2" d="M49.5,38.57c-7.11,0-13.39-3.62-15-5.72a17.15,17.15,0,0,1-3.46-10A12.16,12.16,0,0,1,36.46,12c3.2-2.19,7.77-3.41,13.2-3.51s10,.94,13.32,3a12.17,12.17,0,0,1,5.81,10.67h0A17,17,0,0,1,65.7,32.26c-1.45,2.09-7.52,6.08-15.62,6.3Zm.83-29.08h-.65c-5.37.1-17.82,1.6-17.6,13.35a16.12,16.12,0,0,0,3.26,9.38c1.47,2,7.82,5.5,14.71,5.31,7.65-.22,13.51-4,14.81-5.86a16,16,0,0,0,2.9-9.51h0C67.55,10.88,56,9.49,50.33,9.49Z"/><g class="cls-4"><ellipse class="cls-1" cx="62.29" cy="20.98" rx="3.27" ry="2.37" transform="translate(31.63 79.11) rotate(-80.81)"/></g><g class="cls-4"><ellipse class="cls-1" cx="59.51" cy="27.51" rx="1.5" ry="1.29" transform="translate(15.7 76.27) rotate(-72.87)"/></g><g class="cls-3"><path class="cls-5" d="M64.54,13.31a11.81,11.81,0,0,1,3.73,8.85,16.59,16.59,0,0,1-3,9.81c-1.46,2.11-7.58,5.87-15.21,6.08a22.73,22.73,0,0,1-7.6-1.15c9.38-.46,16.83-5.07,18.64-7.69a21,21,0,0,0,3.8-12.44A18.82,18.82,0,0,0,64.54,13.31Z"/></g><path class="cls-2" d="M32.8,15.19a.52.52,0,0,1-.33-.12.52.52,0,0,1-.09-.69c3.16-4.83,9.4-7.68,17.14-7.83s14,2.38,17.41,6.93a.5.5,0,0,1,0,.65.51.51,0,0,1-.7.09l-.06,0,0-.07c-3.18-4.29-9.23-6.67-16.58-6.53S36.2,10.41,33.23,15l0,.05A.48.48,0,0,1,32.8,15.19Z"/><g class="cls-4"><path class="cls-1" d="M35.8,28.47s-3.14-9.38,1.87-13.24,12.33-4,12.17-3.5c0,0-8.06,2.11-11.11,8.57A37,37,0,0,0,35.8,28.47Z"/></g><path class="cls-1" d="M41.87,54.25c-2,.83-5.19.66-7.34.4a2.32,2.32,0,0,1-2-2.64h0a2.32,2.32,0,0,1,2.39-2,30.78,30.78,0,0,0,6.94-.28"/><g class="cls-3"><path class="cls-2" d="M41.87,54.25c-2,.83-5.19.66-7.34.4a2.32,2.32,0,0,1-2-2.63,2.57,2.57,0,0,1,.24-.74,2.28,2.28,0,0,0,1.77,1.22c2.15.26,5.3.44,7.33-.38Z"/></g><path class="cls-2" d="M37.82,55.37a28.64,28.64,0,0,1-3.35-.21,2.81,2.81,0,0,1-1.9-1.09A2.76,2.76,0,0,1,32,51.94a2.81,2.81,0,0,1,2.92-2.41,30.3,30.3,0,0,0,6.8-.27c.28-.06,1-.06,1.38,1.26s.38,3.63-1,4.21A11.87,11.87,0,0,1,37.82,55.37Zm-3-4.82A1.79,1.79,0,0,0,33,52.09a1.76,1.76,0,0,0,.35,1.35,1.8,1.8,0,0,0,1.21.7c3.08.37,5.6.24,7.09-.36.47-.19.6-1,.63-1.27a3.62,3.62,0,0,0-.43-2.23,31.6,31.6,0,0,1-7,.28Z"/><path class="cls-1" d="M57.46,54.25c2,.83,5.2.66,7.35.4a2.31,2.31,0,0,0,2-2.64h0a2.31,2.31,0,0,0-2.39-2,30.81,30.81,0,0,1-6.94-.28"/><g class="cls-3"><path class="cls-2" d="M64.81,54.65c-2.15.26-5.31.43-7.35-.4V52.1c2,.82,5.19.64,7.34.38a2.27,2.27,0,0,0,1.76-1.21,2.35,2.35,0,0,1,.24.75A2.31,2.31,0,0,1,64.81,54.65Z"/></g><path class="cls-2" d="M61.52,55.37a11.8,11.8,0,0,1-4.25-.64h0c-1.43-.58-1.48-2.86-1.05-4.21s1.1-1.32,1.37-1.26a30.41,30.41,0,0,0,6.81.27,2.83,2.83,0,0,1,.47,5.63A28.79,28.79,0,0,1,61.52,55.37Zm-4.07-5.09A3.72,3.72,0,0,0,57,52.51c0,.31.16,1.08.63,1.27,1.49.6,4,.73,7.09.36a1.8,1.8,0,0,0-.3-3.58A31.72,31.72,0,0,1,57.45,50.28Z"/><path class="cls-1" d="M58.25,48.27v7.21a2.44,2.44,0,0,1-2.43,2.43H42.55a2.44,2.44,0,0,1-2.42-2.43V48.27a2.44,2.44,0,0,1,2.42-2.43H55.82a2.43,2.43,0,0,1,1.94,1A2.38,2.38,0,0,1,58.25,48.27Z"/><g class="cls-3"><path class="cls-2" d="M58.25,48.27v7.21a2.44,2.44,0,0,1-2.43,2.43H42.55a2.44,2.44,0,0,1-2.42-2.43v-2.7c2.76,2.06,8.81,3.48,12.58.41a17,17,0,0,0,5-6.38A2.38,2.38,0,0,1,58.25,48.27Z"/></g><path class="cls-2" d="M55.82,58.42H42.56a3,3,0,0,1-3-2.94V48.27a3,3,0,0,1,3-2.94H55.82a2.94,2.94,0,0,1,2.94,2.94v7.21A2.94,2.94,0,0,1,55.82,58.42ZM42.56,46.36a1.92,1.92,0,0,0-1.92,1.91v7.21a1.92,1.92,0,0,0,1.92,1.91H55.82a1.92,1.92,0,0,0,1.92-1.91V48.27a1.92,1.92,0,0,0-1.92-1.91Z"/><circle class="cls-6" cx="53.89" cy="51.88" r="2.1"/><g class="cls-3"><path class="cls-2" d="M56,51.88a2.1,2.1,0,0,1-4.19,0,1.91,1.91,0,0,1,.15-.76,2.09,2.09,0,0,0,3.9,0A2.1,2.1,0,0,1,56,51.88Z"/></g><path class="cls-2" d="M53.89,54.36a2.48,2.48,0,1,1,2.48-2.48A2.49,2.49,0,0,1,53.89,54.36Zm0-4.19a1.71,1.71,0,1,0,1.71,1.71A1.71,1.71,0,0,0,53.89,50.17Z"/><path class="cls-2" d="M48,58.29a.38.38,0,0,1-.38-.38V53l-2.66-2V45.84a.39.39,0,0,1,.39-.38.38.38,0,0,1,.38.38v4.74l2.66,2v5.33A.39.39,0,0,1,48,58.29Z"/><path class="cls-2" d="M20.32,33.23a2.23,2.23,0,0,1-.45-1.16A3.24,3.24,0,0,1,20,30.83l.11-.29a1.66,1.66,0,0,1,.13-.27,2.43,2.43,0,0,1,.32-.51,4.19,4.19,0,0,1,.39-.45,4.14,4.14,0,0,1,.46-.37.16.16,0,0,1,.22,0,.18.18,0,0,1,0,.16h0c-.08.18-.17.33-.25.49s-.16.32-.23.48a4.73,4.73,0,0,0-.2.47,4.5,4.5,0,0,0-.16.48,4,4,0,0,0-.16,1v.25a1,1,0,0,0,0,.25,4,4,0,0,0,.05.5v0a.21.21,0,0,1-.18.23A.2.2,0,0,1,20.32,33.23Z"/><path class="cls-2" d="M79.18,33c0-.16,0-.33,0-.5s0-.16,0-.25V32a5.35,5.35,0,0,0-.16-1,4.5,4.5,0,0,0-.16-.48,4.73,4.73,0,0,0-.2-.47c-.07-.16-.16-.31-.23-.48s-.18-.31-.25-.49h0a.17.17,0,0,1,.09-.21.16.16,0,0,1,.15,0,5.32,5.32,0,0,1,.46.37,5.73,5.73,0,0,1,.39.45,3.68,3.68,0,0,1,.32.51l.13.27.1.29A3.06,3.06,0,0,1,80,32.07a2.23,2.23,0,0,1-.45,1.16.22.22,0,0,1-.29,0,.23.23,0,0,1-.07-.19Z"/><path class="cls-2" d="M25.4,43.92a.39.39,0,0,1-.21-.71C30,40,30.56,33.7,30.57,33.63a.39.39,0,0,1,.41-.35.38.38,0,0,1,.35.42c0,.27-.62,6.77-5.71,10.15A.36.36,0,0,1,25.4,43.92Z"/><path class="cls-2" d="M74.52,43.92a.33.33,0,0,1-.21-.07c-5.09-3.38-5.7-9.88-5.72-10.15a.39.39,0,0,1,.35-.42.4.4,0,0,1,.42.35c0,.07.6,6.41,5.37,9.58a.39.39,0,0,1,.11.54A.37.37,0,0,1,74.52,43.92Z"/><path class="cls-7" d="M30.16,58.11c-3-2.19-1-4.44.6-3.38-.19-.37.39-.82.8-.62-.2-2.23,2.1-3.15,3.29-1.51-.32-.45.83-1.39,1.63-.78.69-3.73,5.79-4.39,7.93-1.53,0-.58,1.47-.57,1.48,0,0-1.27,3-2.2,4,.32.27-.38.54-1.16,1.59-1.16s1.84.53,1.64,1.06c1.22-3.17,7.25-3.17,8.38.27-.09-.27.92-.55,1.37-.42a.82.82,0,0,1,.29,1.42c5.17-1.6,3,2.12,3,2.12a4.21,4.21,0,0,1,1.33.44c.2.21,0,.61,0,.61s3.85-.64,1.11,3.91C54,83.19,28,59.94,30.36,58.2"/><g class="cls-8"><path class="cls-1" d="M63.13,53.11a.81.81,0,0,0-.29-1.41c-.46-.13-1.46.15-1.37.41-1.14-3.44-7.16-3.44-8.38-.27.2-.52-.67-1.05-1.65-1.05s-1.31.77-1.58,1.15c-.93-2.52-4-1.58-4-.32,0-.59-1.47-.59-1.47,0-2.14-2.85-7.24-2.2-7.94,1.53-.79-.61-1.94.34-1.62.78-1.2-1.63-3.49-.72-3.29,1.51-.42-.2-1,.26-.8.63a1.37,1.37,0,0,0-2,.41,1.36,1.36,0,0,1,2-1.73c-.19-.37.39-.82.8-.62-.2-2.23,2.1-3.15,3.29-1.52-.32-.44.83-1.38,1.63-.77.69-3.73,5.79-4.39,7.93-1.53,0-.58,1.47-.57,1.48,0,0-1.27,3-2.2,4,.32.27-.38.54-1.17,1.59-1.16s1.85.53,1.64,1.06c1.22-3.17,7.25-3.17,8.38.27-.09-.27.92-.55,1.37-.42a.82.82,0,0,1,.29,1.42c3.71-1.15,3.65.45,3.33,1.43C66.17,52.71,65.29,52.45,63.13,53.11Z"/></g><path class="cls-1" d="M69.51,57c-.42-1-2-.73-2-.73s.18-.4,0-.61a4,4,0,0,0-1.33-.45A3.88,3.88,0,0,0,66.58,54a2.52,2.52,0,0,1,.92.35c.2.21,0,.61,0,.61S70.21,54.52,69.51,57Z"/><path class="cls-1" d="M66.58,54l-.41-.09a4.34,4.34,0,0,0,.3-.69A1.36,1.36,0,0,1,66.58,54Z"/><path class="cls-2" d="M51.35,70.41a21.08,21.08,0,0,1-3.15-.24c-9.39-1.41-17.8-8.65-18.46-11.28a1.72,1.72,0,0,1,0-.48c-1.72-1.32-1.86-2.68-1.4-3.53A1.84,1.84,0,0,1,30.41,54a1.19,1.19,0,0,1,.64-.42,2.48,2.48,0,0,1,1.4-2.14,2.22,2.22,0,0,1,2.18.21,1.72,1.72,0,0,1,1.5-.53,4.51,4.51,0,0,1,3.33-3,5.27,5.27,0,0,1,4.95,1.36,1.7,1.7,0,0,1,1.27-.08,2.67,2.67,0,0,1,2.08-.9,2.61,2.61,0,0,1,2.16,1.11A2,2,0,0,1,51.46,49a2.84,2.84,0,0,1,1.66.5,5.25,5.25,0,0,1,4.53-1.78,4.83,4.83,0,0,1,4,2.31,2.34,2.34,0,0,1,1.3-.1,1.32,1.32,0,0,1,1,1.16c1.41-.31,2.34-.17,2.83.41a2.05,2.05,0,0,1,.12,2.1,2,2,0,0,1,1,.44.83.83,0,0,1,.23.43,2,2,0,0,1,1.81.88c.49.84.23,2.09-.82,3.83C63.7,68.1,56.92,70.41,51.35,70.41ZM30.72,58.56c0,1.06,5.23,6.65,13,9.4,7.1,2.53,17.12,3,24.53-9.35,1.11-1.85.93-2.56.81-2.77-.23-.38-.88-.39-1.15-.38a.77.77,0,0,1-.57-.23.75.75,0,0,1-.22-.53,3.74,3.74,0,0,0-.72-.22.75.75,0,0,1-.52-1c.27-.59.33-1.1.16-1.31s-.51-.41-2.15,0a.72.72,0,0,1-.71-.19.76.76,0,0,1-.22-.7.32.32,0,0,0-.21-.37,1.51,1.51,0,0,0-.79.14.78.78,0,0,1-.6,0,.71.71,0,0,1-.44-.39,3.74,3.74,0,0,0-3.3-1.95,4.1,4.1,0,0,0-3.77,1.54.77.77,0,0,1-.59.36.72.72,0,0,1-.62-.25A1.74,1.74,0,0,0,51.45,50a1,1,0,0,0-.91.54.75.75,0,0,1-.67.35.74.74,0,0,1-.63-.4,1.66,1.66,0,0,0-1.49-.92,1.56,1.56,0,0,0-1.3.58.76.76,0,0,1-.47.37.81.81,0,0,1-.57-.07.71.71,0,0,0-.54,0,.77.77,0,0,1-1.07-.07,4.21,4.21,0,0,0-4.1-1.21A3.46,3.46,0,0,0,37,51.64a.74.74,0,0,1-.38.48.76.76,0,0,1-.61,0,.72.72,0,0,0-.73.27.79.79,0,0,1-.54.36.76.76,0,0,1-.6-.18,1.2,1.2,0,0,0-1.3-.23,1.53,1.53,0,0,0-.82,1.45.75.75,0,0,1-.72.74.17.17,0,0,0-.11.06.75.75,0,0,1-1,.41.83.83,0,0,0-1.06.33c-.25.47-.08,1.36,1.26,2.32h0a.51.51,0,0,1,.25.86Zm.57-5Zm12.91-3.9Z"/><path class="cls-9" d="M36.17,96.75c-1.29-.17-2.57-.38-3.85-.6l-.59-5.51L28.58,61.71h4.87l.2,2.58,2.2,28.36v.11Z"/><path class="cls-1" d="M41.57,97.35c-1.8-.15-3.61-.35-5.4-.6l-.31-4v-.11l-2.2-28.36-.2-2.58h6.46L40,64.29,41.4,93.66v.11Z"/><path class="cls-9" d="M46.93,97.64c-1.79,0-3.58-.14-5.36-.29l-.17-3.58v-.11L40,64.29l-.12-2.58h6.46l0,2.58.45,29.06v.18Z"/><path class="cls-1" d="M52.84,61.71l0,2.58-.43,27.76v.18l-.08,5.41c-1.78,0-3.57,0-5.35,0l-.06-4.11v-.18l-.45-29.06,0-2.58Z"/><path class="cls-9" d="M59.3,61.71l-.12,2.58L58,88.9h0l-.39,8.45c-1.79.14-3.57.24-5.36.29l.08-5.41v-.18l.43-27.76,0-2.58Z"/><path class="cls-1" d="M65.76,61.71l-.2,2.58L64.21,81.71l0,.63L63,96.75q-2.68.38-5.4.6L58,88.9h0l1.15-24.61.12-2.58Z"/><path class="cls-9" d="M70.63,61.71l-1,9-2.75,25.4-1,.16c-1,.16-1.92.31-2.88.44l1.12-14.41,0-.63,1.35-17.42.2-2.58Z"/><path class="cls-2" d="M49.59,98.19c-.89,0-1.78,0-2.67,0-1.8,0-3.61-.14-5.39-.29s-3.65-.35-5.43-.6c-1.27-.17-2.57-.38-3.87-.61l-.38-.07L28,60.73H71.25L67.36,96.59,66,96.81c-1,.17-1.93.32-2.9.45-1.79.25-3.62.45-5.43.6s-3.59.24-5.39.29C51.4,98.18,50.49,98.19,49.59,98.19Zm-16.8-2.48c1.16.2,2.32.38,3.45.54,1.76.24,3.57.44,5.37.59s3.56.24,5.34.29,3.56.05,5.31,0,3.58-.15,5.34-.29,3.6-.35,5.37-.6c1-.13,1.92-.28,2.87-.44l.58-.1L70.1,61.76h-41Z"/><path class="cls-7" d="M37.8,55.29a1.64,1.64,0,0,1,.48-1.57c1-.68,1.74.81,1.89.79s.35-2.29,2.56-2.25a2,2,0,0,1,2,2.63"/><g class="cls-8"><path class="cls-1" d="M44.16,52.7a.44.44,0,0,1-.46.75,2.47,2.47,0,0,0-1-.18,2.32,2.32,0,0,0-2.31,1.61.43.43,0,0,1-.38.28h0A.42.42,0,0,1,39.7,55c-.35-.36-.85-.71-1.42-.31a1.11,1.11,0,0,0-.41.56H37.8a1.64,1.64,0,0,1,.48-1.57c1-.68,1.74.81,1.89.79s.35-2.29,2.56-2.25A2.25,2.25,0,0,1,44.16,52.7Z"/></g><path class="cls-7" d="M62.13,55.29a1.64,1.64,0,0,0-.48-1.57c-1-.68-1.74.81-1.89.79s-.35-2.29-2.56-2.25a2,2,0,0,0-2,2.63"/><g class="cls-8"><path class="cls-1" d="M62.13,55.29h-.05a1.22,1.22,0,0,0-.43-.59c-.59-.41-1.11,0-1.46.34a.39.39,0,0,1-.31.12h0a.39.39,0,0,1-.34-.25,2.35,2.35,0,0,0-2.33-1.68,2.43,2.43,0,0,0-1.17.28.39.39,0,0,1-.48-.59,2.07,2.07,0,0,1,1.65-.66c2.21,0,2.41,2.23,2.56,2.25s.92-1.47,1.89-.79A1.64,1.64,0,0,1,62.13,55.29Z"/></g><path class="cls-2" d="M37.8,55.68a.38.38,0,0,1-.37-.31,2,2,0,0,1,.63-2,1.45,1.45,0,0,1,2,.4,2.71,2.71,0,0,1,2.65-1.94h.06a2.4,2.4,0,0,1,2,.92A2.62,2.62,0,0,1,45.1,55a.4.4,0,0,1-.48.26.39.39,0,0,1-.26-.48,1.86,1.86,0,0,0-.21-1.54,1.69,1.69,0,0,0-1.43-.6h0a2.1,2.1,0,0,0-2,1.74c-.08.25-.16.48-.44.51s-.37-.13-.55-.34c-.53-.62-.83-.75-1.16-.51s-.32,1.17-.32,1.17a.39.39,0,0,1-.3.46Z"/><path class="cls-2" d="M62.13,55.81H62a.52.52,0,0,1-.4-.61s.14-.76-.26-1c-.24-.16-.46-.13-1,.5-.19.21-.36.41-.67.38s-.46-.35-.54-.6c-.29-.87-.73-1.67-1.95-1.65a1.54,1.54,0,0,0-1.32.55,1.7,1.7,0,0,0-.2,1.42.51.51,0,0,1-1,.3,2.76,2.76,0,0,1,.35-2.33,2.52,2.52,0,0,1,2.13-1h.06a2.8,2.8,0,0,1,2.69,1.85,1.49,1.49,0,0,1,2-.29,2.09,2.09,0,0,1,.69,2.1A.52.52,0,0,1,62.13,55.81Z"/><g class="cls-3"><path class="cls-2" d="M69.64,70.75l-2.75,25.4-1,.16c-1,.16-1.92.31-2.88.44q-2.68.38-5.4.6c-1.79.14-3.57.24-5.36.29s-3.57,0-5.35,0-3.58-.14-5.36-.29-3.61-.35-5.4-.6c-1.29-.17-2.57-.38-3.85-.6l-.59-5.51a19,19,0,0,0,4.12,2l.95.31a21.68,21.68,0,0,0,4.6.81l.56,0a26.33,26.33,0,0,0,4.91-.27l.18,0a33.7,33.7,0,0,0,4.22-.93c.31-.08.61-.18.91-.28l.18-.07a18.37,18.37,0,0,0,5.1-2.87L58,88.9a29.83,29.83,0,0,0,5.14-5.65c.36-.51.7-1,1-1.54A58.53,58.53,0,0,0,69.64,70.75Z"/></g><g class="cls-10"><ellipse class="cls-1" cx="35.98" cy="76.69" rx="3.42" ry="10.78" transform="translate(-3.03 1.5) rotate(-2.28)"/></g><g class="cls-3"><polygon class="cls-2" points="70.68 61.24 70.42 63.64 28.79 63.64 28.53 61.24 70.68 61.24"/></g><rect class="cls-11" x="24.88" y="56.83" width="49.46" height="4.41" rx="1.75"/><g class="cls-3"><path class="cls-2" d="M74.33,58.58v.92a1.74,1.74,0,0,1-1.74,1.74h-46a1.74,1.74,0,0,1-1.74-1.74v-.92A1.67,1.67,0,0,1,25,58a1.74,1.74,0,0,0,1.65,1.19h46A1.74,1.74,0,0,0,74.24,58,1.67,1.67,0,0,1,74.33,58.58Z"/></g><path class="cls-2" d="M72.59,61.76h-46a2.27,2.27,0,0,1-2.26-2.26v-.92a2.27,2.27,0,0,1,2.26-2.26h46a2.27,2.27,0,0,1,2.26,2.26v.92A2.27,2.27,0,0,1,72.59,61.76Zm-46-4.41a1.23,1.23,0,0,0-1.23,1.23v.92a1.23,1.23,0,0,0,1.23,1.23h46a1.23,1.23,0,0,0,1.23-1.23v-.92a1.23,1.23,0,0,0-1.23-1.23Z"/></svg>